<svg xmlns="http://www.w3.org/2000/svg" viewBox="0 0 1301.77 1301.76"><path d="m1277.57 26.6-296.37-.9-4.49 20.66s70 34.12 89.81 52.08 23.28 21.39 23.28 21.39l-94 92.16a646.83 646.83 0 0 1 95.27 95.59l89.52-93.28 79 106h18Z" style="fill:#010101"/><path d="m1189.76 285.53-67.26 66.64a555.5 555.5 0 0 1 86.57 293c3.15 308.26-244.19 560.71-552.46 563.86S95.87 964.85 92.72 656.58 336.92 95.87 645.18 92.73a555.52 555.52 0 0 1 307.16 88.34l69-65.51C913.32 40.46 785.17 0 651 0h-6.77C470.38 1.81 307.63 71.18 186 195.36S-1.74 483.68 0 657.53c1.8 172.67 70.37 334.63 193.12 456.06s285.19 188.17 457.64 188.17h6.77c358.88-3.67 647.87-298.62 644.2-657.49-1.32-129.86-40.45-253.65-112-358.71" style="fill:#010101"/><path d="M301.15 605h23l-38.45 71.06-38.95-71h27.93v-17.74H159.22v17.69h26.42l53.7 97.56h62.17L354.27 605h26.46v-17.68h-79.58ZM691.48 684.72h-24.62V605h26.55v-17.67H586.82V605h26.83v79.76h-26.83v17.88h160v-53.43h-17.58c0 20.44-15 35.51-37.76 35.51M475.55 585c-52.92 0-81 26.41-81 59.54 0 33.59 27.07 60.37 81.35 60.37s81-26.78 81-60.37c0-33.13-28.41-59.54-81.35-59.54M475 686.79c-19.33-.35-27.83-21.72-27.46-42.94.39-22 10.91-41.16 29-40.84s27.67 19.85 27.28 41.82c-.37 20.74-8.92 42.32-28.83 42M883.73 605h23l-38.43 71.06-38.95-71h27.93v-17.74H741.8v17.69h26.4l53.7 97.56h62.17L936.85 605h26.46v-17.68h-79.58ZM1057.84 584.48c-53.36 0-81.71 26.63-81.71 60 0 33.87 27.29 60.87 82 60.87s81.71-27 81.71-60.87c0-33.4-28.65-60-82-60m-.59 102.61c-19.49-.35-28-21.89-27.68-43.29.39-22.17 11-41.49 29.25-41.17s27.89 20 27.49 42.17c-.36 20.9-9 42.66-29.06 42.29" style="fill:#010101"/></svg>